<svg version="1.1" xmlns="http://www.w3.org/2000/svg" xmlns:xlink="http://www.w3.org/1999/xlink" width="261.32364" height="267.34882" viewBox="0,0,261.32364,267.34882"><defs><radialGradient cx="241.10143" cy="182.83776" r="101.57518" gradientUnits="userSpaceOnUse" id="color-1"><stop offset="0" stop-color="#ffffff"/><stop offset="1" stop-color="#ffffff" stop-opacity="0"/></radialGradient><linearGradient x1="239.81466" y1="179.72286" x2="370.66182" y2="179.72286" gradientUnits="userSpaceOnUse" id="color-2"><stop offset="0" stop-color="#ffffff"/><stop offset="1" stop-color="#ffffff" stop-opacity="0"/></linearGradient><linearGradient x1="240.18537" y1="180.27711" x2="109.33811" y2="180.27711" gradientUnits="userSpaceOnUse" id="color-3"><stop offset="0" stop-color="#ffffff"/><stop offset="1" stop-color="#ffffff" stop-opacity="0"/></linearGradient><linearGradient x1="240.17157" y1="179.54183" x2="302.99915" y2="294.31847" gradientUnits="userSpaceOnUse" id="color-4"><stop offset="0" stop-color="#ffffff"/><stop offset="1" stop-color="#ffffff" stop-opacity="0"/></linearGradient><linearGradient x1="239.86334" y1="180.13305" x2="177.03584" y2="65.35642" gradientUnits="userSpaceOnUse" id="color-5"><stop offset="0" stop-color="#ffffff"/><stop offset="1" stop-color="#ffffff" stop-opacity="0"/></linearGradient><linearGradient x1="240.29127" y1="179.54183" x2="177.46377" y2="294.31854" gradientUnits="userSpaceOnUse" id="color-6"><stop offset="0" stop-color="#ffffff"/><stop offset="1" stop-color="#ffffff" stop-opacity="0"/></linearGradient><linearGradient x1="240.5995" y1="180.13305" x2="303.42706" y2="65.35642" gradientUnits="userSpaceOnUse" id="color-7"><stop offset="0" stop-color="#ffffff"/><stop offset="1" stop-color="#ffffff" stop-opacity="0"/></linearGradient></defs><g transform="translate(-109.33818,-46.32559)"><g data-paper-data="{&quot;isPaintingLayer&quot;:true}" fill-rule="nonzero" stroke="none" stroke-width="0" stroke-linejoin="miter" stroke-miterlimit="10" stroke-dasharray="" stroke-dashoffset="0" style="mix-blend-mode: normal"><path d="M341.70015,182.83776c0,56.09849 -45.0395,101.57518 -100.59857,101.57518c-55.55902,0 -100.59859,-45.47679 -100.59859,-101.57518c0,-56.09849 45.03952,-101.57518 100.59859,-101.57518c55.55902,0 100.59857,45.47679 100.59857,101.57518z" fill="url(#color-1)" stroke-linecap="butt"/><g stroke-linecap="round"><path d="M370.66182,220.03426l-130.84719,-41.00244l130.47655,-39.62035" data-paper-data="{&quot;origPos&quot;:null}" fill="url(#color-2)"/><path d="M109.70882,139.96574l130.47655,39.62035l-130.84719,41.00244" data-paper-data="{&quot;origPos&quot;:null,&quot;index&quot;:null}" fill="url(#color-3)"/></g><g data-paper-data="{&quot;origRot&quot;:0}" stroke-linecap="round"><path d="M267.63877,313.67441l-26.86098,-134.4644l97.40375,95.42744" data-paper-data="{&quot;origPos&quot;:null}" fill="url(#color-4)"/><path d="M212.57416,46.32559l27.8953,133.47564l-98.79405,-95.08904" data-paper-data="{&quot;origPos&quot;:null,&quot;index&quot;:null}" fill="url(#color-5)"/></g><g data-paper-data="{&quot;origRot&quot;:0,&quot;index&quot;:null}" stroke-linecap="round"><path d="M142.28133,274.63747l97.40384,-95.42744l-26.86098,134.46433" data-paper-data="{&quot;origPos&quot;:null}" fill="url(#color-6)"/><path d="M338.78744,84.71226l-98.79405,95.08904l27.89537,-133.47566" data-paper-data="{&quot;origPos&quot;:null,&quot;index&quot;:null}" fill="url(#color-7)"/></g></g></g></svg>