<svg version="1.1" xmlns="http://www.w3.org/2000/svg" xmlns:xlink="http://www.w3.org/1999/xlink" width="838.25823" height="838.2581" viewBox="0,0,838.25823,838.2581"><g transform="translate(179.12911,239.12905)"><g data-paper-data="{&quot;isPaintingLayer&quot;:true}" fill="#ffffff" fill-rule="nonzero" stroke="none" stroke-width="1.08178" stroke-linecap="square" stroke-linejoin="miter" stroke-miterlimit="10" stroke-dasharray="" stroke-dashoffset="0" style="mix-blend-mode: normal"><path d="M327.75488,-229.6625c25.02841,148.06969 -9.92551,293.18214 -87.75483,409.6624c27.32229,-137.3597 4.09667,-284.75482 -75.63717,-411.95115c24.94311,-4.67758 50.25945,-7.08003 75.63717,-7.1778c29.50324,0.05814 58.91792,3.23119 87.75483,9.46655zM477.86565,-164.99236c45.27704,31.29439 83.94703,71.20008 113.80223,117.4388c-87.00154,122.35635 -214.29785,200.22863 -351.66781,227.55342c116.50582,-77.84672 204.34196,-198.57182 237.86558,-344.99226zM651.95122,104.3692c4.67718,24.941 7.07973,50.25519 7.1779,75.63084c-0.00724,29.4913 -3.12701,58.89941 -9.30758,87.73582c-148.12481,25.07994 -293.29969,-9.87877 -409.82143,-87.73596c137.3596,27.32249 284.75482,4.10307 411.95115,-75.63067zM585.03681,417.87849c-31.23725,45.31329 -71.09318,84.03076 -117.29254,113.94201c-122.4718,-87.00533 -200.40476,-214.37571 -227.74425,-351.82058c77.85447,116.51735 198.59653,204.36261 345.03679,237.87859zM315.78331,592.21195c-24.99907,4.59888 -50.36463,6.91415 -75.78323,6.9171c-29.50541,-0.05764 -58.92231,-3.23085 -87.76134,-9.46665c-25.02619,-148.06741 9.93305,-293.18411 87.76134,-409.6625c-27.34053,137.45034 -4.07802,284.95839 75.78323,412.21204zM2.12799,524.99873c-45.28059,-31.29741 -83.95279,-71.20752 -113.80854,-117.45137c87.00198,-122.35457 214.312,-200.22286 351.68059,-227.54746c-116.50739,77.848 -204.3496,198.57592 -237.87209,344.99886zM-171.96398,255.6308c-4.67285,-24.94143 -7.07111,-50.25565 -7.16513,-75.63091c0.05606,-29.50303 3.22709,-58.91771 9.46028,-87.75483c148.06959,-25.02818 293.18874,9.92551 409.66887,87.75483c-137.36128,-27.32272 -284.76666,-4.10525 -411.96402,75.63091zM-104.99869,-57.87218c31.29815,-45.27831 71.20825,-83.9483 117.4516,-113.80213c122.35351,87.00208 200.22286,214.30613 227.54716,351.67422c-77.84682,-116.50582 -198.5783,-204.34856 -344.99873,-237.87209z"/></g></g></svg>